<?xml version="1.0" encoding="UTF-8"?> <svg xmlns="http://www.w3.org/2000/svg" width="211" height="141" viewBox="0 0 211 141" fill="none"> <path d="M88.9331 0.586188C88.9331 0.806736 87.867 0.953768 86.4701 0.953768C81.6175 0.953768 66.5452 2.57112 66.1408 3.12249C66.0305 3.26952 64.3027 3.67386 62.3176 4.00468C60.2957 4.37226 58.1635 4.88687 57.5386 5.14418C56.9136 5.43824 55.2594 6.02637 53.8256 6.50422C52.4287 6.94532 51.1788 7.42317 51.0685 7.5702C50.9582 7.71723 49.9657 8.23184 48.8628 8.7097C47.76 9.18755 46.5101 9.8492 46.1424 10.2168C45.7381 10.5844 45.2234 10.8784 44.9661 10.8784C44.1941 10.8784 39.121 16.098 38.6063 17.3846C38.349 18.0462 37.9813 18.5976 37.8343 18.5976C37.6505 18.5976 37.1726 19.5165 36.6947 20.6193C36.2535 21.722 35.7389 22.641 35.5918 22.641C35.4448 22.641 35.1874 23.0085 35.0404 23.4496C34.9301 23.9275 34.1949 25.6184 33.4229 27.2357C32.6877 28.8531 31.9524 30.5439 31.8054 30.985C31.6583 31.4629 31.401 31.8305 31.2172 31.8305C31.0701 31.8305 30.629 32.6391 30.2614 33.6684L29.5997 35.5063H22.762C14.27 35.5063 14.4906 35.396 14.2333 39.6231C13.9024 44.1811 14.3068 46.2763 15.667 47.5996C16.2919 48.1878 16.6963 48.8126 16.5493 49.0332C16.439 49.217 15.4096 49.7683 14.3068 50.2462C13.2039 50.6873 12.2114 51.2019 12.1011 51.3489C11.9908 51.496 10.9982 52.0473 9.89538 52.5619C3.82969 55.4291 3.0577 56.1642 2.35922 59.8768C2.06513 61.4206 1.73427 64.0304 1.58723 65.7213C1.44018 67.4122 1.14609 68.8825 0.925516 69.0295C0.337328 69.3971 0.337328 119.976 0.925516 120.344C1.18285 120.491 1.44018 122.953 1.62399 127.107L1.88132 133.65H4.41788C5.81483 133.65 6.95444 133.687 6.9912 133.724C6.9912 133.797 7.13825 135.12 7.2853 136.701C7.50587 138.833 7.7632 139.715 8.27786 140.083C8.86605 140.524 12.2114 140.597 28.6806 140.634C46.5836 140.634 48.4584 140.561 48.8996 140.009C49.1937 139.678 49.451 138.245 49.5613 136.517L49.6716 133.65H105.476H161.28L161.427 136.627C161.538 139.053 161.685 139.678 162.273 140.119C162.861 140.561 166.28 140.634 182.712 140.634C200.615 140.634 202.49 140.561 202.931 140.009C203.225 139.678 203.483 138.245 203.593 136.517L203.703 133.65H206.534H209.401L209.842 125.269C210.541 113.286 210.798 81.4537 210.284 74.0654C209.769 66.53 209.107 60.8692 208.776 60.8692C208.629 60.8692 208.372 60.0973 208.225 59.1784C208.115 58.2227 207.821 57.0832 207.6 56.6053C207.196 55.7967 204.733 53.8852 204.034 53.8852C203.85 53.8852 203.63 53.7382 203.556 53.5912C203.446 53.2604 195.873 49.4743 195.395 49.4743C195.248 49.4743 194.88 49.2537 194.586 48.9597C194.145 48.4818 194.182 48.4083 194.807 48.1878C196.388 47.7099 196.939 44.9163 196.718 38.9247C196.608 35.4695 196.718 35.5063 188.521 35.5063C182.602 35.5063 181.573 35.4327 181.573 34.9549C181.573 34.6608 181.462 34.4035 181.279 34.4035C181.132 34.4035 180.617 33.3375 180.176 32.0142C179.698 30.691 179.183 29.625 178.999 29.625C178.852 29.625 178.411 28.706 178.044 27.5665C177.713 26.427 177.198 25.2875 176.941 25.0302C176.647 24.7729 176.095 23.6702 175.654 22.6042C175.25 21.5015 174.772 20.5458 174.625 20.4355C174.441 20.3252 174.037 19.6636 173.669 18.9652C172.051 15.7672 168.522 12.2017 165.508 10.6211C164.846 10.2903 164.295 9.88595 164.295 9.77568C164.295 9.62865 163.302 9.11404 162.089 8.63618C160.876 8.15833 159.883 7.64372 159.883 7.53344C159.883 7.38641 158.67 6.90856 157.236 6.46746C155.766 5.98961 154.369 5.51176 154.185 5.32797C153.965 5.18093 151.906 4.66632 149.59 4.18847C147.274 3.71061 145.289 3.23276 145.179 3.12249C144.737 2.57112 129.481 0.953768 124.886 0.953768C123.452 0.953768 122.386 0.806736 122.386 0.586188C122.386 0.328882 116.578 0.218608 105.66 0.218608C94.7415 0.218608 88.9331 0.328882 88.9331 0.586188ZM119.078 15.2894C119.188 15.4364 120.953 15.657 123.048 15.804C128.967 16.1716 137.275 17.164 137.385 17.5316C137.459 17.7154 137.863 17.8624 138.267 17.8624C139.444 17.8624 146.428 19.3695 146.649 19.6636C146.759 19.8106 147.899 20.2149 149.222 20.6193C152.457 21.5382 156.207 23.7069 158.339 25.8389C160.067 27.5665 164.295 33.6316 164.295 34.3668C164.295 34.5873 164.442 34.7711 164.626 34.7711C164.809 34.7711 165.324 35.7636 165.765 36.9766C166.206 38.1528 166.721 39.1821 166.905 39.2556C167.089 39.3291 167.566 40.3583 168.008 41.5713C168.412 42.7843 168.89 43.8503 169 43.9606C169.147 44.0709 169.441 44.6222 169.662 45.2471C169.882 45.8352 170.213 46.6439 170.36 46.9747C170.618 47.5996 167.383 47.6364 105.513 47.6364C66.2879 47.6364 40.4076 47.4894 40.4076 47.3056C40.4076 47.1218 40.5547 46.9012 40.7752 46.8277C40.959 46.7542 41.5472 45.4677 42.0987 43.9606C42.6133 42.4535 43.1647 41.1302 43.3118 41.0199C43.4588 40.9097 43.9735 39.9172 44.4146 38.8145C44.8925 37.7117 45.3704 36.7193 45.5175 36.609C45.6278 36.4987 46.1424 35.543 46.6203 34.477C47.135 33.4478 47.6129 32.5656 47.76 32.5656C47.907 32.5656 48.2379 32.1245 48.4952 31.5364C49.2304 30.0661 51.8038 26.6843 53.1639 25.3978C54.3771 24.2216 55.3329 23.5967 57.1342 22.6777C57.7592 22.3837 58.3106 22.0161 58.4209 21.869C58.5311 21.722 59.9281 21.2074 61.5456 20.7296C63.1631 20.2885 64.5968 19.7738 64.7071 19.5901C64.8174 19.443 66.8761 18.9284 69.3023 18.4873C71.6918 18.0462 73.7505 17.6051 73.8608 17.4581C74.1181 17.1273 83.3086 16.0613 88.2346 15.7672C90.4403 15.657 92.2417 15.3996 92.2417 15.2526C92.2417 14.6277 118.637 14.7012 119.078 15.2894ZM26.9528 64.7656C28.938 65.0597 30.776 65.4272 30.9966 65.611C31.2172 65.7581 33.0185 66.3094 35.0404 66.7505C37.0255 67.2284 38.8636 67.8533 39.121 68.1106C39.415 68.3679 39.7827 68.5884 39.9665 68.5884C40.4444 68.5884 43.8632 70.0955 44.0838 70.4263C44.1941 70.5366 45.0028 71.0512 45.8851 71.5658C47.5026 72.448 48.5687 73.2199 50.1127 74.6535L50.8847 75.3886L49.2304 75.6092C48.3114 75.7562 45.3337 75.9768 42.6133 76.1238C39.893 76.2708 37.577 76.5281 37.4667 76.7119C37.3564 76.859 32.7244 77.0428 27.1734 77.1163C17.1374 77.2265 17.0272 77.2265 16.1816 76.4179C14.8582 75.2049 14.3068 70.6469 14.895 65.7948L15.1155 63.9569L19.2329 64.104C21.4753 64.1775 24.9677 64.4715 26.9528 64.7656ZM195.652 64.4348C195.983 64.6553 195.946 71.5658 195.579 73.8448C195.395 74.9476 194.954 75.9033 194.403 76.4179C193.557 77.2265 193.41 77.2265 183.631 77.1163C178.154 77.0428 173.595 76.859 173.485 76.7119C173.375 76.5281 170.985 76.2708 168.155 76.1238C163.008 75.8665 162.089 75.6092 162.089 74.5432C162.089 73.8816 164.552 71.5291 165.214 71.5291C165.434 71.5291 165.949 71.235 166.353 70.8674C166.721 70.4998 168.044 69.8014 169.257 69.3236C170.471 68.809 171.573 68.2944 171.684 68.1473C171.794 67.9635 173.706 67.3754 175.911 66.824C178.117 66.2727 179.992 65.7213 180.102 65.5743C180.323 65.2802 187.344 64.2142 190.212 64.0672C192.417 63.9202 195.101 64.104 195.652 64.4348ZM117.607 92.5179C120.732 92.7384 123.526 93.0692 123.857 93.253C124.151 93.4 127.129 93.9882 130.474 94.5028C133.782 95.0174 136.613 95.5688 136.723 95.7158C136.834 95.8628 138.635 96.3774 140.767 96.8553C142.899 97.3332 144.701 97.8478 144.811 97.9948C144.921 98.1418 145.987 98.5462 147.2 98.9137C150.105 99.7224 154.332 101.781 155.582 102.92C156.906 104.17 156.869 105.898 155.472 108.912C154.884 110.162 154.369 111.485 154.369 111.779C154.369 112.257 148.671 112.33 105.476 112.33C62.5749 112.33 56.5828 112.257 56.5828 111.779C56.5828 111.485 55.9946 110.015 55.2961 108.508C53.7889 105.31 53.7154 104.464 54.7815 103.582C55.2226 103.251 55.8475 102.7 56.1784 102.369C56.5093 102.038 57.6856 101.487 58.7885 101.119C59.8913 100.752 60.8839 100.347 60.9942 100.2C61.1045 100.053 62.6852 99.5386 64.4865 99.0975C66.3246 98.6197 67.8686 98.1051 67.9789 97.9948C68.1995 97.7375 74.596 96.1569 75.4783 96.1569C75.7724 96.1569 76.0665 96.0099 76.14 95.7893C76.2503 95.4585 86.2863 93.5838 88.0508 93.5838C88.5287 93.5838 88.9331 93.4368 88.9331 93.253C88.9331 92.8854 93.1239 92.4811 100.145 92.1503C106.174 91.893 109.851 91.9665 117.607 92.5179Z" fill="#ECECEC"></path> </svg> 