<svg width="42" height="43" viewBox="0 0 42 43" fill="none" xmlns="http://www.w3.org/2000/svg">
<path d="M35.4395 12.4971H6.56445C5.83958 12.4971 5.25195 13.0796 5.25195 13.7982V34.6167C5.25195 35.3353 5.83958 35.9178 6.56445 35.9178H35.4395C36.1643 35.9178 36.752 35.3353 36.752 34.6167V13.7982C36.752 13.0796 36.1643 12.4971 35.4395 12.4971Z" stroke="#ffff" stroke-width="2" stroke-linecap="round" stroke-linejoin="round"/>
<path d="M27.5625 12.4971V9.89478C27.5625 9.2046 27.2859 8.5427 26.7937 8.05467C26.3014 7.56665 25.6337 7.29248 24.9375 7.29248H17.0625C16.3663 7.29248 15.6986 7.56665 15.2063 8.05467C14.7141 8.5427 14.4375 9.2046 14.4375 9.89478V12.4971" stroke="#ffff" stroke-width="2" stroke-linecap="round" stroke-linejoin="round"/>
<path d="M36.7523 21.3301C31.9654 24.0756 26.5312 25.5172 21.0009 25.5086C15.4716 25.5172 10.0383 24.0761 5.25195 21.3315" stroke="#fff" stroke-width="2" stroke-linecap="round" stroke-linejoin="round"/>
<path d="M19.0312 20.3041H22.9688" stroke="#fff" stroke-width="2" stroke-linecap="round" stroke-linejoin="round"/>
</svg>
