<svg width="42" height="49" viewBox="0 0 42 49" fill="none" xmlns="http://www.w3.org/2000/svg">
<path d="M7.21875 27.0156H34.7812" stroke="#fff" stroke-width="2" stroke-linecap="round" stroke-linejoin="round"/>
<path d="M32.8125 34.8906V37.8438C32.8125 38.1048 32.7088 38.3552 32.5242 38.5398C32.3396 38.7244 32.0892 38.8281 31.8281 38.8281H28.875C28.6139 38.8281 28.3635 38.7244 28.1789 38.5398C27.9943 38.3552 27.8906 38.1048 27.8906 37.8438V34.8906" stroke="#fff" stroke-width="2" stroke-linecap="round" stroke-linejoin="round"/>
<path d="M14.1094 34.8906V37.8438C14.1094 38.1048 14.0057 38.3552 13.8211 38.5398C13.6365 38.7244 13.3861 38.8281 13.125 38.8281H10.1719C9.9108 38.8281 9.66042 38.7244 9.47582 38.5398C9.29121 38.3552 9.1875 38.1048 9.1875 37.8438V34.8906" stroke="#fff" stroke-width="2" stroke-linecap="round" stroke-linejoin="round"/>
<path d="M13.125 30.9531H15.0938" stroke="#fff" stroke-width="2" stroke-linecap="round" stroke-linejoin="round"/>
<path d="M26.9062 30.9531H28.875" stroke="#fff" stroke-width="2" stroke-linecap="round" stroke-linejoin="round"/>
<path d="M32.8125 27.0156L29.1348 18.7408C29.0575 18.5668 28.9313 18.419 28.7717 18.3152C28.612 18.2115 28.4257 18.1562 28.2353 18.1563H13.7647C13.5743 18.1563 13.388 18.2115 13.2283 18.3152C13.0687 18.419 12.9425 18.5668 12.8652 18.7408L9.1875 27.0156V34.8906H32.8125V27.0156Z" stroke="#fff" stroke-width="2" stroke-linecap="round" stroke-linejoin="round"/>
<path d="M26.9062 42.4375L29.5312 45.0625L26.9062 47.6875" stroke="#fff" stroke-width="2" stroke-linecap="round" stroke-linejoin="round"/>
<path d="M13.7812 45.0625H29.5312" stroke="#fff" stroke-width="2" stroke-linecap="round" stroke-linejoin="round"/>
<path d="M16.4062 13.5625L13.7812 10.9375L16.4062 8.3125" stroke="#fff" stroke-width="2" stroke-linecap="round" stroke-linejoin="round"/>
<path d="M29.5312 10.9375H13.7812" stroke="#fff" stroke-width="2" stroke-linecap="round" stroke-linejoin="round"/>
</svg>
