<?xml version="1.0" encoding="UTF-8"?> <svg xmlns="http://www.w3.org/2000/svg" width="405" height="541" viewBox="0 0 405 541" fill="none"> <path d="M180.543 0.711635C167.661 2.50908 155.478 4.50624 155.079 5.00553C154.779 5.3051 149.686 6.90283 143.595 8.4007C137.604 9.99843 131.313 11.8957 129.615 12.6946C128.017 13.4935 123.324 15.5905 119.33 17.2881C115.235 18.9856 109.144 21.9814 105.649 23.9785C90.4706 32.6662 86.1767 35.2625 86.1767 35.9615C86.1767 36.3609 84.4791 37.6591 82.482 38.7575C80.3849 39.9558 77.7886 41.7533 76.6902 42.7519C75.5918 43.7504 72.7957 46.0472 70.499 47.8446C66.0054 51.3396 51.2264 66.3183 46.6329 72.0102C45.0352 73.9075 43.1379 76.2043 42.339 77.0031C41.64 77.802 39.6429 80.598 38.0452 83.1943C36.4474 85.7907 34.7498 87.9875 34.3504 87.9875C33.951 87.9875 32.2534 90.6837 30.6557 93.979C29.0579 97.2743 27.3603 99.9705 26.9609 99.9705C26.5615 99.9705 24.9638 102.567 23.5657 105.662C22.1677 108.858 20.7697 111.654 20.3703 111.953C19.4716 112.652 17.5743 117.146 15.0778 124.436C13.8795 127.731 12.5814 130.627 12.1819 130.926C11.1834 131.625 5.29173 152.496 5.29173 155.492C5.29173 156.69 4.8923 157.888 4.39301 158.088C2.89514 158.687 0.298828 180.356 0.298828 193.038C0.298828 204.921 2.4957 223.095 4.19329 225.192C4.69258 225.792 5.79102 229.686 6.7896 233.78C8.78676 242.867 11.3831 251.056 12.2818 251.755C12.5814 252.054 13.8795 255.35 15.1777 259.244C16.376 263.039 18.7726 269.03 20.3703 272.425C21.968 275.82 23.2662 278.916 23.2662 279.315C23.2662 279.715 25.7626 285.107 28.7584 291.199C31.7541 297.39 34.2505 302.882 34.2505 303.581C34.2505 304.18 34.65 304.679 35.0494 304.679C35.5487 304.679 37.446 308.174 39.2434 312.468C41.1408 316.662 42.9382 320.357 43.2378 320.657C43.8369 321.156 46.3334 325.65 55.3206 342.526C56.9183 345.521 58.6159 348.218 59.0153 348.517C59.4148 348.917 61.3121 352.012 63.1095 355.607C65.0068 359.202 66.8043 362.297 67.2037 362.597C67.6031 362.897 68.5018 364.195 69.2008 365.593C69.8999 366.991 72.4962 371.085 74.7929 374.78C77.1895 378.474 79.1866 381.87 79.1866 382.369C79.1866 382.768 79.9855 384.067 80.9841 385.165C83.181 387.661 89.1724 397.447 89.1724 398.646C89.1724 399.145 89.5719 399.545 89.9713 399.545C90.4706 399.545 92.0683 401.741 93.5662 404.537C95.0641 407.234 96.8615 410.03 97.4607 410.729C98.1597 411.428 100.257 414.523 102.154 417.519C104.051 420.515 106.148 423.61 106.847 424.309C107.446 425.008 109.044 427.305 110.242 429.502C111.541 431.699 112.839 433.496 113.238 433.496C113.638 433.496 114.636 434.695 115.435 436.192C118.631 442.284 119.729 444.081 122.425 446.877C123.923 448.475 125.121 450.272 125.121 450.872C125.121 451.471 126.12 453.068 127.418 454.466C128.616 455.864 130.614 458.561 131.812 460.458C133.01 462.355 134.808 464.852 135.806 465.95C138.203 468.746 142.097 474.238 142.097 474.937C142.097 475.237 143.395 476.934 145.093 478.732C146.691 480.529 148.089 482.327 148.089 482.926C148.089 483.425 149.587 485.622 151.384 487.619C153.082 489.616 156.077 493.411 157.875 495.907L161.27 500.501L156.876 500.002C154.579 499.702 147.39 498.903 141.099 498.304C134.808 497.705 129.415 496.906 129.116 496.407C128.816 496.007 126.12 495.408 123.124 495.009C114.636 493.91 92.7673 489.317 91.6689 488.418C91.1696 488.019 87.2751 486.621 83.181 485.522C74.693 483.026 69.8999 481.328 69.2008 480.429C68.9013 480.13 65.7058 478.632 62.0111 477.034C58.2165 475.437 55.2207 473.839 55.2207 473.34C55.2207 472.84 54.6216 472.441 54.0224 472.441C51.8256 472.441 44.1365 466.649 41.64 463.254C37.2463 457.462 38.9439 453.268 48.5302 446.078C51.2264 444.081 56.3192 440.986 60.0139 439.188C63.7087 437.391 66.9041 435.693 67.2037 435.394C67.5033 434.994 71.2979 433.496 75.6916 431.998C80.0854 430.5 84.0797 428.903 84.4791 428.503C84.9784 428.104 84.1795 425.907 82.7815 423.61C81.3835 421.413 80.1852 419.117 80.1852 418.717C80.1852 418.218 79.1866 416.72 77.8885 415.322C76.5903 413.924 74.0939 410.229 72.2964 407.034C70.499 403.838 68.6017 400.743 68.1024 400.144C67.6031 399.545 66.5047 398.147 65.7058 397.048C64.4077 395.051 64.3078 395.051 55.6202 398.047C50.827 399.644 46.4332 401.442 45.8341 402.041C45.2349 402.54 42.4389 404.138 39.7427 405.536C36.9467 406.934 34.65 408.332 34.4503 408.731C34.2505 409.231 33.4517 409.53 32.6528 409.53C31.854 409.53 31.2548 409.93 31.2548 410.429C31.2548 410.928 29.7569 412.027 27.8596 412.925C22.9666 415.222 10.6841 427.005 7.58846 432.398C6.09059 434.894 4.59272 437.191 4.29315 437.491C2.19613 439.088 0.298828 448.675 0.298828 457.462C0.298828 466.35 2.19613 475.936 4.29315 477.434C4.69258 477.733 5.99073 479.73 7.08917 481.927C9.98505 487.719 20.57 498.104 28.5586 503.097C30.8554 504.495 32.9524 505.993 33.252 506.293C34.0508 507.291 46.8327 513.383 48.1308 513.383C48.73 513.383 49.2292 513.782 49.2292 514.281C49.2292 514.681 53.1237 516.378 58.0168 517.976C62.8099 519.574 67.004 521.172 67.3035 521.671C67.6031 522.07 73.6945 523.868 80.7844 525.665C87.8743 527.363 93.8658 529.06 94.1653 529.36C94.9642 530.259 111.74 533.254 126.619 535.052C134.308 536.05 140.799 537.049 141.099 537.349C141.398 537.648 142.696 538.048 144.094 538.147C145.492 538.147 152.383 538.747 159.472 539.346C185.935 541.443 260.728 539.945 261.727 537.249C261.927 536.749 263.724 536.35 265.721 536.35C273.61 536.35 308.86 530.458 308.86 529.16C308.86 528.661 309.659 528.361 310.657 528.361C311.556 528.361 316.649 527.263 321.842 525.865C335.322 522.37 336.221 522.07 336.82 521.471C337.12 521.072 341.114 519.574 345.808 517.976C350.501 516.378 354.495 514.881 354.795 514.481C355.094 514.082 358.19 512.484 361.785 510.986C365.38 509.388 369.074 507.291 370.073 506.293C371.072 505.194 372.37 504.395 372.969 504.395C373.568 504.395 375.565 503.297 377.363 501.899C379.16 500.501 380.858 499.403 381.057 499.403C381.557 499.403 388.147 492.712 395.936 484.324C398.233 481.828 401.329 475.636 402.227 471.742C402.527 469.944 403.326 468.247 403.825 467.947C405.023 467.148 405.023 448.874 403.725 446.677C403.226 445.779 401.828 442.384 400.63 439.288C399.531 436.093 397.434 432.098 395.936 430.401C388.746 421.813 376.664 411.527 373.868 411.527C373.268 411.527 372.769 411.128 372.769 410.629C372.769 410.229 369.973 408.332 366.578 406.535C363.083 404.737 360.087 402.94 359.788 402.54C358.889 401.242 342.013 395.35 340.315 395.75C339.417 395.85 337.32 398.546 335.622 401.542C334.024 404.537 332.327 407.234 331.927 407.533C331.228 408.132 324.837 418.418 324.837 419.017C324.837 419.217 323.739 420.615 322.341 422.112C320.943 423.61 319.844 425.807 319.844 427.005C319.844 428.903 320.843 429.502 326.235 430.9C331.927 432.498 351.499 441.585 352.798 443.282C353.097 443.682 355.094 445.18 357.391 446.777C362.484 450.173 365.779 454.566 365.779 457.961C365.779 460.957 361.086 466.05 354.795 469.944C352.298 471.542 350.101 473.04 349.802 473.34C349.103 474.238 337.32 479.431 335.922 479.431C335.322 479.431 334.823 479.83 334.823 480.33C334.823 481.129 329.231 483.126 316.849 486.521C314.352 487.22 312.155 488.119 311.856 488.418C311.157 489.217 293.382 493.111 283.896 494.509C279.801 495.109 275.507 496.007 274.409 496.507C273.311 496.906 267.719 497.805 261.927 498.404C256.135 499.003 249.744 499.702 247.747 499.902C242.854 500.601 242.754 498.803 247.447 494.31C249.345 492.412 250.942 490.515 250.942 490.116C250.942 489.616 252.94 486.721 255.336 483.625C257.733 480.429 260.529 476.435 261.527 474.638C262.526 472.94 263.724 471.442 264.124 471.442C264.523 471.442 265.522 470.144 266.42 468.546C267.219 466.849 268.917 464.452 270.115 463.054C271.413 461.756 274.109 457.961 276.206 454.766C281.1 447.077 284.495 442.284 286.092 440.486C286.791 439.687 288.988 436.492 290.886 433.496C292.783 430.5 294.58 427.804 294.98 427.505C295.279 427.205 297.277 424.409 299.274 421.314C301.171 418.218 303.268 415.422 303.767 415.023C304.267 414.723 305.365 413.225 306.164 411.727C308.361 407.433 310.258 404.238 311.656 402.74C312.355 401.941 313.853 399.545 314.951 397.447C315.95 395.35 317.248 393.553 317.648 393.553C318.147 393.553 319.944 390.657 321.842 387.062C323.739 383.467 325.536 380.571 325.836 380.571C326.235 380.571 327.933 377.775 329.73 374.38C331.528 370.885 333.525 367.59 334.124 367.091C334.823 366.492 336.621 363.496 338.118 360.3C339.616 357.205 341.214 354.608 341.713 354.608C342.113 354.608 343.91 351.513 345.708 347.718C347.505 343.924 349.303 340.628 349.702 340.429C350.201 340.229 351.699 337.832 352.997 335.136C359.188 322.854 363.882 314.366 365.28 312.968C366.079 312.169 366.778 311.07 366.778 310.471C366.778 309.872 368.775 305.279 371.171 300.286C381.157 279.615 384.053 273.024 385.851 267.333C386.949 264.037 388.147 261.041 388.647 260.742C389.046 260.442 390.644 256.148 392.142 251.255C393.639 246.262 395.537 240.77 396.336 238.973C398.133 234.979 402.627 212.71 402.727 207.617C402.727 205.62 403.226 203.623 403.725 203.324C405.023 202.525 404.923 184.051 403.625 183.252C403.126 182.953 402.727 181.055 402.727 179.058C402.727 171.768 397.334 143.209 395.737 141.911C395.337 141.611 393.839 137.517 392.441 132.724C390.943 128.031 389.346 123.936 388.946 123.737C388.547 123.537 386.949 120.142 385.351 116.147C383.853 112.153 382.056 108.359 381.357 107.66C380.758 106.961 379.06 103.865 377.562 100.769C375.965 97.6738 374.167 94.5782 373.468 93.7793C372.769 93.0803 370.672 89.9847 368.775 86.9889C366.878 83.9932 364.781 80.9975 364.181 80.4982C363.482 79.899 361.885 77.9019 360.586 76.0046C359.288 74.1073 356.992 71.1115 355.494 69.5138C345.608 59.0287 340.615 54.0358 336.421 50.5408C333.725 48.3439 330.429 45.448 329.131 44.1499C327.833 42.8517 325.936 41.254 324.837 40.6548C323.839 40.0557 320.543 37.9587 317.648 35.9615C305.964 28.0727 299.473 24.0784 296.278 22.8801C294.381 22.1811 292.883 21.3822 292.883 20.9828C292.883 20.5834 289.188 18.7859 284.694 17.0883C280.101 15.3908 274.609 13.094 272.412 12.0954C270.215 11.0969 264.623 9.29942 259.93 8.10113C255.236 7.00269 250.543 5.60468 249.445 5.10539C244.352 2.60894 227.576 0.911351 206.006 0.611777C193.624 0.412061 182.24 0.511919 180.543 0.711635ZM210.5 102.167C219.687 102.767 235.964 106.461 235.964 108.059C235.964 108.558 236.563 108.958 237.262 108.958C239.259 108.958 250.942 114.749 250.942 115.848C250.942 116.347 251.841 117.146 252.94 117.446C254.138 117.845 257.633 120.342 260.928 123.038C266.021 127.232 269.516 131.126 277.205 141.112C281.199 146.205 287.99 162.082 289.887 170.47C292.583 182.653 292.583 201.826 289.987 212.51C287.391 223.095 286.092 227.09 285.094 227.689C284.694 227.988 283.197 230.884 281.699 234.18C280.301 237.375 278.004 241.27 276.806 242.967C269.416 252.054 263.425 258.745 262.726 258.745C262.226 258.745 260.828 259.743 259.63 261.041C255.436 265.435 245.75 271.027 230.472 277.818C221.684 281.712 197.019 282.91 182.839 280.014C178.246 279.116 174.351 278.117 174.052 277.718C173.752 277.418 170.756 276.02 167.261 274.822C163.866 273.524 159.972 271.726 158.773 270.828C157.575 269.829 154.48 267.832 151.883 266.434C149.187 264.936 146.092 262.639 144.793 261.441C143.495 260.243 141.099 258.046 139.501 256.648C134.508 252.254 125.121 240.071 125.121 237.974C125.121 237.475 124.422 236.476 123.623 235.777C122.825 235.178 120.827 230.884 119.13 226.491C117.432 221.997 115.635 217.404 115.136 216.305C113.238 212.011 112.14 203.224 112.14 191.94C112.14 180.855 113.538 168.972 114.936 167.874C115.335 167.574 116.733 164.179 117.932 160.385C120.728 152.096 129.216 136.918 132.111 135.121C133.21 134.422 134.109 133.323 134.109 132.624C134.109 131.026 145.093 121.24 149.886 118.444C151.584 117.346 153.082 116.247 153.082 115.848C153.082 115.548 156.377 113.751 160.371 111.953C164.266 110.156 167.761 108.359 168.06 107.959C169.558 106.162 187.932 101.968 194.822 101.968C198.317 101.968 200.015 101.568 200.015 100.669C200.015 99.8706 200.314 99.7708 200.814 100.57C201.213 101.169 205.607 101.868 210.5 102.167Z" fill="#ECECEC"></path> </svg> 