<?xml version="1.0" encoding="UTF-8"?> <svg xmlns="http://www.w3.org/2000/svg" width="447" height="448" viewBox="0 0 447 448" fill="none"> <path d="M217.195 16.936C210.121 18.1315 201.454 21.718 197.27 25.0056C195.277 26.5996 193.086 27.8947 192.587 27.8947C191.99 27.8947 191.492 28.2932 191.492 28.6917C191.492 29.3891 172.862 43.5357 165.788 48.0188C161.803 50.609 151.941 53.5978 145.166 54.2951C141.879 54.6936 131.318 55.2914 121.755 55.6899C104.818 56.3872 104.121 56.4869 97.3466 59.7745C89.9744 63.2613 82.4029 69.3384 80.012 73.6222C79.215 75.1166 78.3183 76.4117 77.9199 76.7106C76.027 78.0057 73.8353 84.4813 70.1492 99.6242C67.8578 108.69 65.7657 117.855 65.4668 120.047C64.4706 126.124 58.6924 137.481 54.3089 141.964C52.1172 144.156 45.542 150.433 39.5645 155.912C33.5871 161.391 27.8088 166.871 26.713 167.966C23.6246 171.154 18.5438 178.527 17.8464 180.818C17.5475 181.914 16.5513 184.604 15.7543 186.795C13.4629 192.773 13.6622 205.923 16.1528 213.295C17.2487 216.583 21.4329 225.649 25.4179 233.42C40.2619 262.51 40.0626 261.713 36.4762 287.017C32.9893 312.322 33.0889 319.196 36.775 328.76C39.0664 334.737 40.8596 337.427 46.5382 343.305C53.8108 350.677 52.7149 350.08 79.4142 361.935C83.7977 363.927 88.48 365.82 89.8748 366.119C94.5571 367.315 104.221 375.085 109.301 381.76C113.486 387.239 124.544 403.976 128.23 410.253C128.728 411.149 132.315 414.935 136.001 418.621C140.882 423.403 144.469 425.894 148.255 427.288C155.029 429.879 165.29 431.572 169.674 430.775C176.946 429.58 187.407 426.89 195.178 424.3C204.742 421.012 219.386 417.426 223.172 417.426C227.257 417.426 239.71 420.315 250.768 423.901C275.873 432.07 284.242 432.668 298.189 427.488C309.048 423.403 314.029 418.123 327.479 397.003C336.544 382.557 344.415 372.595 346.507 372.595C347.304 372.595 347.902 372.196 347.902 371.798C347.902 370.801 357.067 365.621 358.761 365.621C359.358 365.621 363.045 364.027 366.93 362.134C370.815 360.241 374.501 358.647 374.999 358.647C378.088 358.647 394.725 349.382 398.71 345.497C411.661 332.745 414.55 323.081 412.159 301.363C408.971 272.672 408.672 266.794 410.067 260.218C410.964 256.134 415.148 246.57 421.624 233.619L431.785 213.395L432.283 203.034C432.981 189.685 431.287 182.81 425.21 174.243C422.819 170.756 419.731 166.97 418.436 165.974C409.171 158.203 391.836 140.968 388.648 136.286C385.36 131.504 384.065 128.017 380.877 114.867C378.686 106.199 376.494 96.6354 375.796 93.5471C374.202 85.1786 368.723 74.6185 363.045 68.9399C360.155 66.0508 355.075 62.4643 350.591 60.2726C343.02 56.5865 343.02 56.4869 325.785 55.6899C300.182 54.4944 295.2 53.8966 288.127 51.1071C282.648 48.9154 269.697 40.4473 265.413 36.1635C264.715 35.4661 263.719 34.8684 263.42 34.8684C263.022 34.8684 260.93 33.2744 258.738 31.3815C256.546 29.4887 254.354 27.8947 253.956 27.8947C253.557 27.8947 252.163 26.9981 250.967 25.8026C244.392 19.6259 227.456 15.2424 217.195 16.936ZM253.358 85.5771C257.443 86.673 263.321 88.1674 266.509 89.064C273.682 90.9569 291.614 99.2257 295.2 102.214C295.997 103.011 297.193 103.609 297.691 103.609C298.488 103.609 308.65 110.882 314.428 115.564C323.195 122.538 337.142 138.777 343.717 149.436C348.898 157.904 355.872 173.745 359.159 184.305C368.623 215.288 365.934 252.846 352.185 281.937C348.997 288.811 341.227 302.658 339.932 303.854C339.633 304.153 338.138 306.145 336.544 308.337C323.992 325.472 303.17 342.707 285.138 350.877C283.744 351.474 279.759 353.268 276.371 354.862C269.597 357.95 250.17 362.931 238.813 364.625C213.309 368.211 182.725 361.835 154.531 346.991C151.642 345.497 148.952 344.003 148.653 343.704C148.354 343.405 146.162 341.811 143.672 340.217C131.318 331.948 114.482 314.912 106.014 302.16C98.2432 290.205 88.48 268.985 86.886 260.119C86.3879 257.628 85.0928 250.555 83.9969 244.577C80.5101 225.549 81.7056 207.019 88.0815 182.81C90.871 171.951 105.317 144.455 112.091 137.083C113.286 135.788 115.677 132.998 117.271 130.906C120.958 126.323 129.724 117.557 130.621 117.557C131.02 117.557 132.813 115.963 134.706 114.07C136.599 112.177 138.591 110.583 139.189 110.583C139.886 110.583 141.181 109.686 142.078 108.69C145.664 104.705 170.869 91.5546 178.441 89.6617C180.433 89.2632 185.215 87.8685 189.001 86.673C198.764 83.6843 210.221 82.7877 229.448 83.2858C241.304 83.5847 248.078 84.282 253.358 85.5771Z" fill="#ECECEC"></path> <path d="M202.949 96.237C197.469 96.9344 189.599 98.628 185.514 100.122C181.43 101.617 176.548 103.211 174.755 103.709C172.962 104.307 169.176 106.1 166.486 107.694C163.796 109.288 161.007 110.583 160.509 110.583C159.413 110.583 149.251 117.557 142.278 123.036C136.499 127.619 121.755 142.762 121.755 144.156C121.755 144.854 121.456 145.451 121.058 145.451C120.559 145.451 118.766 147.842 116.873 150.731C114.98 153.521 112.689 157.107 111.693 158.502C109.003 162.587 101.93 178.726 100.236 184.604C95.9522 200.245 94.7567 207.418 94.3582 219.671C93.9597 234.515 94.8563 242.884 98.3432 255.337C99.7379 260.119 100.834 264.801 100.834 265.598C100.834 266.395 101.232 267.79 101.83 268.786C102.328 269.683 104.819 274.764 107.309 279.944C111.792 289.209 114.781 294.888 115.777 295.884C116.076 296.183 118.168 298.873 120.46 301.961C125.541 308.935 135.503 319.096 142.676 324.875C145.665 327.266 148.753 329.856 149.45 330.454C150.148 331.151 151.343 331.749 152.041 331.749C152.838 331.749 153.934 332.347 154.531 333.044C157.62 336.929 178.939 345.796 195.975 350.379C203.646 352.471 240.806 352.769 249.274 350.777C268.103 346.394 294.205 334.538 301.079 327.266C302.374 325.871 303.968 324.775 304.665 324.775C305.96 324.775 324.391 305.747 326.782 301.861C327.678 300.467 329.173 298.474 330.069 297.378C335.648 291.002 347.304 265.2 348.998 255.237C352.385 236.109 352.883 231.826 352.883 224.155C352.784 203.433 346.707 178.327 337.94 163.384C336.545 160.893 335.05 158.203 334.752 157.207C333.556 154.119 319.21 135.987 314.329 131.504C307.056 124.63 298.488 117.557 297.592 117.557C297.094 117.557 295.799 116.76 294.703 115.664C293.507 114.667 288.626 111.679 283.844 109.188C260.332 96.7351 232.637 92.3517 202.949 96.237ZM291.415 169.56C298.986 173.346 303.071 183.906 299.983 191.976C299.385 193.47 280.257 213.495 257.543 236.309C211.616 282.335 211.915 282.036 202.55 279.745C198.466 278.749 195.576 276.158 173.759 254.64C159.413 240.493 148.952 229.235 148.056 227.243C146.262 223.059 146.262 216.384 148.056 212.2C149.849 207.916 156.823 202.536 161.605 201.739C168.977 200.544 171.866 202.337 189.101 219.273C197.868 228.04 205.738 235.113 206.635 235.113C208.129 235.113 218.689 224.653 258.439 184.305C272.287 170.258 273.084 169.461 277.866 167.767C282.15 166.273 285.936 166.771 291.415 169.56Z" fill="#ECECEC"></path> </svg> 