<?xml version="1.0" encoding="UTF-8"?> <svg xmlns="http://www.w3.org/2000/svg" width="716" height="716" viewBox="0 0 716 716" fill="none"> <path d="M325.178 1.24506C325.178 1.7443 323.281 2.24353 320.985 2.24353C314.095 2.24353 294.226 4.44018 294.226 5.23896C294.226 5.63835 291.23 6.23743 287.536 6.63682C283.842 7.03621 280.347 7.73514 279.748 8.13453C279.249 8.53392 275.355 9.5324 271.261 10.2313C267.167 10.9303 263.173 11.8289 262.275 12.3281C260.477 13.3266 247.996 16.9211 243.603 17.8197C241.806 18.2191 240.308 18.8182 240.308 19.3174C240.308 19.8167 239.31 20.2161 238.012 20.2161C236.814 20.2161 234.916 20.8152 233.818 21.6139C232.72 22.3129 230.224 23.3113 228.326 23.7107C226.429 24.1101 223.933 25.0088 222.835 25.7077C221.737 26.4066 219.34 27.3052 217.543 27.6048C215.846 28.0042 214.348 28.7031 214.348 29.2023C214.348 29.7016 213.349 30.4005 212.151 30.7001C208.457 31.7984 195.277 38.1886 189.386 41.6833C186.391 43.5804 182.696 45.2778 181.198 45.6772C179.701 46.0766 178.303 46.9752 178.003 47.774C177.704 48.5728 176.805 49.1718 175.907 49.1718C175.108 49.1718 174.409 49.5712 174.409 49.9706C174.409 50.37 172.811 51.3685 170.914 52.0674C169.017 52.7663 167.42 53.7648 167.42 54.2641C167.42 54.7633 166.721 55.1627 165.922 55.1627C165.023 55.1627 164.125 55.7618 163.825 56.5605C163.525 57.3593 162.227 58.258 161.029 58.5575C159.731 58.857 157.235 60.4546 155.338 62.0522C153.441 63.7496 150.845 65.6467 149.447 66.3456C148.049 67.0445 146.452 68.043 145.753 68.6421C145.054 69.1413 143.955 70.1398 143.256 70.639C142.558 71.2381 140.361 72.9355 138.464 74.4332C136.567 75.931 133.971 78.0277 132.673 78.9264C131.375 79.825 128.679 82.2213 126.582 84.1184C124.485 86.0155 120.891 89.2107 118.494 91.1078C113.602 95.1017 110.506 98.1969 110.506 99.0956C110.506 99.495 109.408 100.294 108.11 100.993C106.812 101.692 105.215 103.289 104.516 104.587C103.817 105.885 102.319 107.383 101.021 108.082C99.723 108.781 98.2252 110.278 97.5263 111.576C96.8274 112.875 95.3297 114.372 94.1315 115.071C92.8335 115.67 91.1361 117.467 90.2374 118.865C89.4387 120.363 86.7428 123.658 84.3464 126.254C77.5568 133.643 75.5599 136.139 75.5599 137.437C75.5599 138.136 74.4615 139.334 73.0637 140.033C71.7657 140.732 70.1681 142.629 69.6689 144.127C69.1696 145.724 68.1712 147.022 67.6719 147.022C67.0728 147.022 66.5736 147.522 66.5736 148.121C66.5736 148.72 65.4753 150.617 64.0774 152.414C62.6795 154.112 61.1818 155.909 60.7824 156.508C60.3831 157.007 59.6841 158.305 59.2847 159.204C58.9852 160.202 58.2863 161.001 57.787 161.001C57.3876 161.001 56.3892 162.599 55.5904 164.496C54.7916 166.393 53.893 167.99 53.3937 167.99C52.9943 167.99 52.595 168.689 52.595 169.488C52.595 170.187 51.9959 171.285 51.2969 171.685C50.598 172.084 49.3998 173.981 48.7009 175.679C47.9021 177.476 47.0035 178.974 46.6041 178.974C46.1049 178.974 45.5058 180.272 45.1064 181.969C44.707 183.567 44.1079 184.964 43.7085 184.964C43.3091 184.964 42.4105 186.562 41.7116 188.459C41.0127 190.356 40.0142 191.954 39.5149 191.954C39.0157 191.954 38.6163 192.353 38.6163 192.852C38.6163 193.352 36.8191 197.545 34.6224 202.238C32.4258 206.831 30.6285 211.124 30.6285 211.823C30.6285 212.422 30.2291 212.922 29.7299 212.922C29.3305 212.922 28.332 215.018 27.5332 217.614C26.8343 220.31 25.6361 223.006 24.9372 223.705C24.2383 224.404 23.6392 226.102 23.6392 227.499C23.6392 228.797 23.2398 229.896 22.8404 229.896C22.3412 229.896 21.3427 232.392 20.6438 235.387C19.9448 238.383 18.9464 240.879 18.547 240.879C18.1476 240.879 17.5485 242.676 17.1491 244.873C16.7497 247.069 16.1506 248.867 15.7512 248.867C15.3519 248.867 14.4532 251.962 13.7543 255.856C13.0554 259.65 12.1567 262.845 11.6575 262.845C11.2581 262.845 10.5592 265.342 10.1598 268.337C9.86025 271.332 9.16131 274.028 8.76192 274.328C8.36253 274.528 7.36406 278.921 6.66513 284.013C5.96619 289.105 5.06757 293.698 4.56833 294.297C4.16894 294.797 3.56986 299.09 3.17047 303.783C2.77108 308.476 1.87245 312.869 1.27336 313.668C-0.324194 315.665 -0.324194 402.432 1.27336 403.431C1.87245 403.83 2.67123 407.924 3.07062 412.617C3.47001 417.309 4.16894 421.503 4.66818 422.102C5.06757 422.601 5.96619 427.494 6.66513 432.786C7.46391 438.178 8.36253 442.571 8.76192 442.571C9.16131 442.571 9.7604 445.067 10.1598 448.062C10.4593 451.058 11.1583 453.554 11.6575 453.554C12.0569 453.554 13.0554 456.649 13.6544 460.543C14.2535 464.338 15.252 467.533 15.6514 467.533C16.1506 467.533 16.8496 469.53 17.249 472.026C17.5485 474.522 18.2474 476.519 18.6468 476.519C19.0462 476.519 19.9448 479.015 20.6438 482.011C21.3427 485.006 22.3412 487.502 22.8404 487.502C23.2398 487.502 23.6392 488.301 23.6392 489.299C23.6392 490.298 24.2383 491.895 24.9372 492.994C25.6361 494.092 26.8343 496.888 27.5332 499.184C28.1323 501.581 29.1308 503.478 29.63 503.478C30.0294 503.478 30.7284 504.876 31.1278 506.473C31.5271 508.171 32.1262 509.469 32.6255 509.469C33.0249 509.469 33.6239 510.767 33.9235 512.364C34.223 513.862 36.0203 517.856 37.9174 521.051C39.8145 524.246 41.7116 527.94 42.0111 529.139C42.4105 530.437 43.1094 531.435 43.6087 531.435C44.1079 531.435 44.707 532.733 45.1064 534.331C45.4059 535.928 46.3046 537.526 47.1033 537.725C47.8023 538.025 48.7009 539.623 49.1003 541.22C49.3998 542.917 50.3983 544.515 51.1971 544.815C51.9959 545.114 52.595 546.013 52.595 546.911C52.595 547.71 52.8945 548.409 53.3937 548.409C53.7931 548.409 54.7916 549.907 55.5904 551.604C56.2893 553.401 57.3876 555.299 57.787 555.898C58.2863 556.397 59.4844 557.994 60.5828 559.292C61.6811 560.59 62.7794 562.388 63.0789 563.386C63.3785 564.385 64.2771 565.483 65.0759 565.783C65.8747 566.082 66.5736 566.981 66.5736 567.879C66.5736 568.678 66.973 569.377 67.4722 569.377C67.9715 569.377 68.6704 570.176 69.0698 571.274C69.3693 572.273 71.0667 574.669 72.864 576.666C74.6612 578.563 76.9577 581.359 78.0561 582.856C79.1544 584.354 82.1498 587.849 84.8457 590.645C87.4417 593.44 89.5385 596.036 89.5385 596.436C89.5385 597.534 115.399 623.295 119.892 626.789C121.989 628.387 125.084 630.983 126.881 632.68C128.679 634.378 131.874 637.074 133.871 638.771C135.968 640.369 138.364 642.465 139.362 643.264C142.857 646.26 147.35 649.255 148.449 649.255C149.048 649.255 149.747 649.954 150.046 650.753C150.445 651.552 151.244 652.25 151.943 652.25C152.642 652.25 153.74 652.949 154.439 653.748C155.538 655.046 162.627 659.639 169.017 663.034C170.315 663.733 171.413 664.731 171.413 665.231C171.413 665.73 172.811 666.329 174.509 666.728C176.206 667.128 177.804 668.026 178.103 668.725C178.303 669.524 179.9 670.423 181.498 670.722C183.096 671.122 184.394 671.721 184.394 672.22C184.394 672.619 185.891 673.618 187.689 674.317C189.386 675.016 191.483 676.214 192.182 676.913C192.881 677.612 194.179 678.211 194.977 678.211C195.776 678.211 196.375 678.61 196.375 679.109C196.375 679.609 198.672 680.607 201.368 681.306C204.163 682.005 206.36 682.904 206.36 683.303C206.36 683.702 207.658 684.301 209.355 684.701C210.953 685.1 212.351 685.799 212.351 686.199C212.351 686.698 214.248 687.696 216.644 688.295C218.941 688.994 221.737 690.192 222.835 690.891C223.933 691.59 225.531 692.189 226.529 692.189C227.528 692.189 228.326 692.589 228.326 692.988C228.326 693.388 231.022 694.386 234.317 695.085C237.612 695.884 240.308 696.782 240.308 697.182C240.308 697.681 242.105 698.28 244.302 698.68C246.499 699.079 248.296 699.678 248.296 700.077C248.296 700.477 251.391 701.375 255.285 702.074C259.079 702.773 262.474 703.672 262.774 704.171C263.073 704.571 265.57 705.269 268.265 705.669C271.061 706.068 273.258 706.667 273.258 707.167C273.258 707.566 277.951 708.465 283.742 709.163C289.533 709.962 294.226 710.861 294.226 711.26C294.226 711.66 298.12 712.259 303.012 712.658C307.805 713.058 311.999 713.956 312.398 714.555C313.396 716.153 401.861 716.153 402.86 714.555C403.259 713.956 407.153 713.058 411.547 712.658C415.94 712.259 420.034 711.66 420.533 711.26C421.132 710.761 426.124 709.862 431.816 709.163C437.407 708.465 442 707.466 442 707.067C442 706.667 444.197 706.068 446.992 705.669C449.688 705.269 452.184 704.571 452.484 704.171C452.784 703.672 456.178 702.773 459.973 702.174C463.867 701.575 466.962 700.577 466.962 700.177C466.962 699.678 468.759 699.079 470.956 698.68C473.152 698.28 474.95 697.581 474.95 697.082C474.95 696.583 475.748 696.183 476.847 696.183C478.544 696.183 485.933 693.587 492.423 690.692C494.12 689.993 497.116 688.795 499.213 688.196C501.21 687.596 502.907 686.698 502.907 686.199C502.907 685.699 504.305 685.1 505.902 684.701C507.6 684.301 508.898 683.702 508.898 683.303C508.898 682.904 511.194 682.005 513.89 681.306C516.686 680.607 518.883 679.609 518.883 679.109C518.883 678.61 519.981 678.011 521.379 677.612C522.777 677.312 523.875 676.613 523.875 676.214C523.875 675.715 525.472 674.816 527.37 674.117C529.267 673.418 530.864 672.519 530.864 672.12C530.864 671.721 532.162 671.122 533.76 670.722C535.357 670.423 536.955 669.524 537.155 668.725C537.454 668.026 539.052 667.128 540.749 666.728C542.447 666.329 543.844 665.73 543.844 665.231C543.844 664.731 545.043 663.733 546.64 663.034C551.832 660.338 554.328 658.741 555.127 657.443C555.527 656.843 556.525 656.244 557.124 656.244C558.522 656.244 562.116 653.748 564.613 650.952C565.511 650.054 566.809 649.255 567.608 649.255C568.307 649.255 569.106 648.556 569.405 647.757C569.805 646.959 570.604 646.26 571.203 646.26C571.902 646.26 573.499 645.161 574.797 643.763C576.095 642.366 577.593 641.267 578.192 641.267C578.791 641.267 580.389 639.869 581.786 638.272C583.184 636.574 584.682 635.276 585.181 635.276C585.581 635.276 587.777 633.479 589.974 631.282C592.171 629.086 594.367 627.289 594.767 627.289C595.865 627.289 625.719 597.434 625.719 596.436C625.719 596.036 627.816 593.44 630.512 590.645C633.108 587.849 636.103 584.454 637.202 582.956C638.3 581.459 640.597 578.663 642.394 576.766C644.191 574.769 645.889 572.273 646.188 571.274C646.587 570.276 647.286 569.377 647.786 569.377C648.285 569.377 648.684 568.678 648.684 567.879C648.684 566.981 649.383 566.082 650.182 565.783C650.981 565.483 651.879 564.385 652.179 563.286C652.578 562.288 653.377 560.79 654.076 560.191C654.775 559.492 657.171 555.598 659.568 551.604C661.864 547.71 664.161 544.415 664.66 544.415C665.059 544.415 665.758 543.117 666.158 541.42C666.557 539.822 667.356 538.125 668.055 537.725C668.754 537.226 669.952 535.229 670.551 533.132C671.25 531.135 672.248 529.438 672.747 529.438C673.247 529.438 673.646 528.839 673.646 528.14C673.646 527.341 674.545 525.744 675.543 524.546C676.642 523.248 677.84 520.951 678.139 519.353C678.539 517.756 679.238 516.458 679.637 516.458C680.136 516.458 680.835 514.86 681.235 512.963C681.534 511.066 682.233 509.469 682.632 509.469C683.032 509.469 683.831 507.671 684.529 505.475C685.129 503.278 686.127 501.481 686.626 501.481C687.126 501.481 687.824 499.883 688.224 497.986C688.523 496.089 689.222 494.491 689.622 494.491C690.121 494.491 691.02 491.995 691.718 489C692.417 486.004 693.316 483.508 693.715 483.508C694.215 483.508 694.814 481.911 695.213 480.014C695.513 478.116 696.112 476.519 696.511 476.519C696.911 476.519 697.809 473.623 698.508 470.029C699.207 466.434 700.206 463.339 700.605 463.04C701.004 462.74 701.703 460.543 702.003 458.047C702.402 455.551 703.101 453.554 703.6 453.554C704 453.554 704.998 449.46 705.697 444.568C706.396 439.675 707.295 435.581 707.694 435.581C708.093 435.581 708.792 432.586 709.092 428.792C709.491 425.097 710.19 421.603 710.69 421.004C711.089 420.505 711.988 413.715 712.686 406.027C713.286 398.438 714.184 391.349 714.683 390.45C715.981 387.954 715.882 325.749 714.584 325.749C714.084 325.749 713.585 323.752 713.585 321.256C713.585 314.666 711.588 296.494 710.69 294.797C710.19 293.898 709.491 290.403 709.092 287.008C708.693 283.614 708.093 280.818 707.694 280.818C707.295 280.818 706.496 277.124 705.697 272.63C704.998 268.037 704.1 263.844 703.6 263.345C703.101 262.746 702.402 260.349 702.003 258.053C701.603 255.756 701.004 253.859 700.705 253.859C700.305 253.859 699.407 250.964 698.708 247.369C698.009 243.775 697.01 240.879 696.611 240.879C696.212 240.879 695.513 239.281 695.213 237.384C694.814 235.487 694.115 233.89 693.616 233.89C693.116 233.89 692.417 231.893 692.018 229.396C691.718 226.8 690.82 224.204 690.121 223.505C689.422 222.906 688.523 220.81 688.124 219.112C687.824 217.315 687.126 215.917 686.626 215.917C686.227 215.917 685.528 214.719 685.129 213.121C684.829 211.624 682.732 206.731 680.536 202.238C678.439 197.645 676.642 193.751 676.642 193.352C676.642 193.052 676.042 192.153 675.443 191.454C672.348 187.96 671.749 186.961 670.551 183.067C669.852 180.871 669.053 178.974 668.654 178.974C668.254 178.974 667.356 177.476 666.557 175.679C665.858 173.981 664.66 172.084 663.961 171.685C663.262 171.285 662.663 170.486 662.663 169.887C662.663 169.388 662.164 168.39 661.664 167.691C659.568 165.195 655.674 158.904 655.674 158.006C655.674 157.406 655.274 157.007 654.775 157.007C654.276 157.007 653.377 155.709 652.678 154.112C652.079 152.514 650.881 150.916 650.082 150.617C649.283 150.317 648.684 149.419 648.684 148.62C648.684 147.921 647.985 147.022 647.187 146.623C646.388 146.323 645.689 145.425 645.689 144.626C645.689 143.827 644.391 142.13 642.793 140.832C641.196 139.434 639.598 137.437 639.299 136.239C638.899 135.041 637.701 133.543 636.603 133.044C635.604 132.445 634.706 131.446 634.706 130.847C634.706 130.248 632.709 127.852 630.412 125.555C628.016 123.259 625.719 120.563 625.42 119.664C625.02 118.766 624.321 118.067 623.722 118.067C623.123 118.067 622.824 117.667 623.123 117.268C623.423 116.769 622.624 115.77 621.326 115.071C620.028 114.372 618.43 112.875 617.732 111.576C617.033 110.278 615.535 108.781 614.237 108.082C612.939 107.383 611.441 105.885 610.742 104.587C610.043 103.289 608.546 101.791 607.248 101.093C605.95 100.394 604.352 98.796 603.653 97.498C602.954 96.2 602.055 95.1017 601.656 95.1017C601.257 95.1017 599.959 94.0033 598.661 92.6055C597.363 91.3075 595.965 90.1093 595.565 90.1093C595.166 90.1093 592.57 88.0125 589.774 85.3166C583.284 79.1261 579.69 76.1306 578.691 76.1306C578.192 76.1306 576.794 75.1322 575.496 73.8342C571.402 70.1398 568.307 67.7435 565.611 66.3456C564.213 65.5468 562.017 63.9493 560.719 62.8509C559.421 61.6528 557.024 59.9554 555.327 59.1566C553.729 58.3578 551.932 57.0598 551.533 56.4607C551.133 55.7618 550.035 55.1627 549.336 55.1627C548.537 55.1627 547.838 54.7633 547.838 54.3639C547.838 53.8647 546.241 52.966 544.344 52.1673C542.447 51.3685 540.849 50.4699 540.849 49.9706C540.849 49.5712 540.25 49.1718 539.451 49.1718C538.752 49.1718 537.554 48.4729 536.855 47.774C536.256 46.9752 534.059 45.777 532.062 45.0781C530.065 44.3792 528.168 43.4805 527.869 43.0811C527.07 41.883 509.097 32.697 504.604 31.2991C502.607 30.6002 500.91 29.6017 500.91 29.1025C500.91 28.6033 500.111 28.2039 499.113 28.2039C498.214 28.2039 495.818 27.3052 493.821 26.3068C491.824 25.2084 488.429 24.0103 486.332 23.6109C484.235 23.2115 481.839 22.3129 481.14 21.5141C480.441 20.8152 478.744 20.2161 477.346 20.2161C476.048 20.2161 474.95 19.8167 474.95 19.4173C474.95 18.9181 472.354 17.9196 469.258 17.2207C466.063 16.5217 463.068 15.6231 462.469 15.2237C461.97 14.8243 459.673 14.1254 457.476 13.726C455.28 13.3266 452.983 12.6277 452.484 12.2283C451.885 11.729 447.791 10.8304 443.198 10.1315C438.705 9.3327 435.011 8.53392 435.011 8.13453C435.011 7.73514 432.215 7.13606 428.82 6.73667C425.425 6.33728 421.931 5.63835 421.032 5.13911C419.335 4.24048 401.162 2.24353 394.572 2.24353C392.176 2.24353 389.88 1.7443 389.58 1.24506C389.181 0.645975 377.299 0.246585 357.03 0.246585C336.461 0.246585 325.178 0.645975 325.178 1.24506ZM420.133 183.067C424.726 183.666 429.02 184.565 429.519 184.964C430.118 185.364 433.114 186.262 436.309 186.961C439.404 187.66 442 188.659 442 189.058C442 189.458 443.398 190.057 444.995 190.456C446.693 190.855 447.991 191.454 447.991 191.854C447.991 192.253 449.688 193.152 451.685 193.951C454.88 195.049 462.469 199.642 466.463 202.737C467.062 203.137 469.258 204.834 471.355 206.432C476.547 210.425 485.633 219.512 487.031 222.207C487.73 223.406 488.828 224.804 489.527 225.203C490.326 225.602 490.925 226.401 490.925 226.9C490.925 227.4 492.024 228.997 493.421 230.495C494.719 231.893 495.618 233.49 495.319 233.989C495.019 234.489 495.219 234.888 495.818 234.888C496.417 234.888 497.116 235.986 497.515 237.384C497.815 238.782 498.514 239.88 499.013 239.88C499.512 239.88 499.912 240.38 499.912 240.979C499.912 241.578 501.01 244.274 502.408 247.069C503.806 249.765 504.904 252.861 504.904 253.959C504.904 254.957 505.303 255.856 505.803 255.856C506.302 255.856 507.3 259.151 507.999 263.045C508.698 267.039 509.697 270.633 510.296 271.033C510.995 271.532 511.394 278.422 511.394 290.803C511.394 306.479 511.094 309.973 509.896 310.772C509.097 311.271 508.698 311.97 509.097 312.27C510.196 313.368 506.102 326.947 501.609 336.932C500.61 339.029 499.912 341.126 499.912 341.725C499.912 342.224 499.512 342.723 498.913 342.723C498.414 342.723 497.915 343.123 497.915 343.722C497.915 344.82 493.621 351.51 491.425 353.806C490.626 354.705 489.927 355.704 489.927 356.103C489.927 357.501 478.344 369.582 471.954 374.874C469.458 376.971 466.762 379.168 465.963 379.867C464.366 381.364 461.67 382.962 457.976 384.859C456.578 385.558 455.28 386.457 454.98 386.756C454.281 387.655 443.398 392.647 442.1 392.647C441.601 392.647 441.002 393.046 440.802 393.546C440.702 394.045 437.607 395.043 434.012 395.742C430.418 396.441 427.223 397.44 426.923 397.839C426.624 398.338 422.031 398.937 416.739 399.337C411.447 399.636 407.053 400.335 407.053 400.835C407.053 401.234 385.087 401.633 358.128 401.633H309.203V426.096V450.559H358.128C390.079 450.559 407.053 450.858 407.053 451.557C407.053 452.056 408.152 452.556 409.55 452.556C410.947 452.556 412.345 453.254 412.645 454.053C412.944 454.852 414.043 455.751 415.141 456.05C416.14 456.45 417.038 457.248 417.038 458.047C417.038 458.746 417.637 459.545 418.436 459.844C419.235 460.144 420.133 461.941 420.533 463.738C420.832 465.536 421.631 468.032 422.33 469.33C423.129 470.927 423.129 471.826 422.33 472.325C421.831 472.725 421.032 474.622 420.633 476.619C420.034 479.814 415.141 487.003 415.041 484.806C415.041 484.407 414.542 484.806 413.943 485.805C413.444 486.703 412.345 487.502 411.547 487.502C410.848 487.502 410.049 488.101 409.849 488.7C409.45 489.699 398.267 490.098 359.326 490.298L309.203 490.597V516.358C309.203 547.51 309.103 548.11 300.217 554.4C297.321 556.497 295.524 556.896 289.932 556.896C286.038 556.896 282.843 556.397 282.444 555.798C282.044 555.199 280.347 554.001 278.749 553.102C277.052 552.303 275.055 550.306 274.256 548.709C273.458 547.211 272.359 545.613 271.76 545.214C271.161 544.815 270.662 534.031 270.462 517.556L270.163 490.697L254.586 490.298C243.204 490.098 238.91 489.699 238.511 488.7C238.311 488.101 237.512 487.502 236.714 487.502C235.016 487.502 228.326 480.812 228.326 479.015C228.326 478.316 227.727 477.517 227.128 477.318C225.531 476.719 225.431 464.737 227.028 463.738C227.628 463.339 228.426 461.941 228.826 460.543C229.525 457.847 236.115 452.556 238.711 452.556C239.609 452.556 240.308 452.056 240.308 451.557C240.308 450.958 245.999 450.559 255.285 450.559H270.262V426.096V401.633H256.783C249.394 401.633 243.304 401.234 243.304 400.735C243.304 400.235 241.806 399.537 240.009 399.237C236.314 398.538 228.326 392.348 228.326 390.151C228.326 389.452 227.727 388.653 227.128 388.354C225.231 387.755 225.431 374.475 227.328 372.478C228.127 371.579 229.924 369.482 231.222 367.785C232.52 366.088 234.118 364.69 234.817 364.69C235.515 364.69 236.314 364.091 236.514 363.392C236.913 362.493 241.406 362.094 253.588 361.894L270.262 361.595L270.462 278.122C270.662 212.422 271.061 194.55 272.06 194.15C272.659 193.951 273.258 193.152 273.258 192.453C273.258 190.456 280.447 183.966 283.742 183.067C288.335 181.669 410.049 181.769 420.133 183.067Z" fill="#ECECEC"></path> <path d="M309.203 289.704C309.203 327.547 309.503 359.198 309.802 360.097C310.301 361.495 315.494 361.694 357.23 361.694C387.783 361.694 404.058 361.395 404.058 360.696C404.058 360.097 406.654 359.697 409.949 359.697C416.539 359.697 426.025 357.8 426.025 356.502C426.025 356.103 427.123 355.703 428.421 355.703C429.819 355.703 431.516 355.005 432.315 354.206C433.114 353.507 435.011 352.508 436.509 352.109C437.906 351.71 439.404 350.811 439.704 350.112C440.003 349.313 440.702 348.714 441.401 348.714C443.598 348.714 456.977 337.032 456.977 335.135C456.977 334.636 457.876 333.438 458.974 332.439C460.073 331.54 460.971 330.043 460.971 329.244C460.971 328.445 461.371 327.746 461.77 327.746C462.769 327.746 467.961 316.563 467.961 314.466C467.961 313.568 468.36 312.769 468.959 312.569C469.458 312.37 470.257 309.474 470.557 305.979C470.956 302.585 471.555 299.789 471.954 299.789C473.053 299.789 473.153 284.113 472.054 282.116C471.455 281.117 470.756 277.723 470.457 274.528C470.057 271.432 469.458 268.836 469.059 268.836C468.66 268.836 467.761 266.54 467.062 263.844C466.363 261.048 465.365 258.851 464.865 258.851C464.366 258.851 463.967 258.352 463.967 257.753C463.967 257.154 462.868 255.257 461.47 253.46C460.073 251.662 458.974 249.865 458.974 249.466C458.974 248.667 445.595 235.487 441.801 232.592C440.602 231.593 438.506 230.595 437.307 230.295C436.009 229.896 435.011 229.297 435.011 228.897C435.011 228.498 433.813 227.799 432.315 227.4C430.817 227.1 429.32 226.301 428.92 225.802C428.621 225.303 424.727 224.304 420.233 223.705C415.74 223.006 412.046 222.108 412.046 221.708C412.046 221.309 388.881 220.909 360.625 220.909H309.203V289.704Z" fill="#ECECEC"></path> </svg> 