<?xml version="1.0" encoding="UTF-8"?> <svg xmlns="http://www.w3.org/2000/svg" width="501" height="500" viewBox="0 0 501 500" fill="none"> <path d="M101.762 3.02514C96.3746 5.71878 91.3863 11.0063 89.4908 15.8948C88.8922 17.5908 88.4932 30.7597 88.4932 49.715C88.4932 84.5328 88.7925 86.0293 95.5765 91.7159C109.544 103.588 132.29 98.5997 137.478 82.6373C138.874 78.3474 139.972 33.6529 138.874 23.7762C137.976 15.4957 133.587 8.11313 127.002 4.02279C122.812 1.52867 120.917 1.02985 114.532 0.730552C107.947 0.431258 106.251 0.730552 101.762 3.02514Z" fill="#ECECEC"></path> <path d="M376.015 3.02532C369.93 6.11802 364.243 12.902 363.146 18.3891C362.647 20.3844 362.348 34.7505 362.348 50.4135C362.348 75.4544 362.547 79.445 364.143 83.5354C367.535 92.4144 376.913 98.3005 387.788 98.3005C395.17 98.3005 400.458 96.3052 406.045 91.4168C412.629 85.6304 412.829 83.8347 412.529 47.7199L412.23 15.6954L409.137 11.3058C407.441 9.01119 403.85 5.6192 401.256 4.02296C397.166 1.52885 395.17 0.930258 388.885 0.730729C382.301 0.431435 380.605 0.730729 376.015 3.02532Z" fill="#ECECEC"></path> <path d="M56.07 61.0882C48.8869 62.6845 37.9128 67.0741 32.9246 70.2666C26.7392 74.2572 13.3707 87.8251 11.4752 91.8157C10.8766 93.2124 10.0785 94.3098 9.67944 94.3098C8.98109 94.3098 7.38486 97.7018 3.49404 107.778L1.19945 113.764L0.900155 277.378C0.600861 461.045 0.102038 447.676 7.98344 462.84C13.0714 472.418 25.2427 485.786 33.623 490.874C36.9152 492.87 42.8013 495.563 46.6921 496.86L53.9749 499.354H250.611H447.347L454.729 496.76C462.112 494.166 465.704 492.57 466.601 491.473C466.901 491.174 468.996 489.577 471.39 487.981C479.072 482.694 488.949 471.121 493.338 462.242C501.12 446.579 500.521 460.646 500.521 280.371C500.521 106.681 500.821 116.059 495.533 101.992C494.336 98.899 492.84 95.7066 492.241 95.0082C491.543 94.4096 489.747 91.9155 488.151 89.5211C484.459 84.0341 471.689 72.0623 466.103 68.7701C457.822 63.9814 447.846 61.188 436.572 60.6892L425.897 60.1903L425.498 71.9626C425 86.9273 423.304 91.0176 413.926 100.196C405.645 108.277 398.462 111.27 386.889 111.27C376.813 111.27 367.535 106.88 359.654 98.4002C352.371 90.6186 350.076 84.4332 349.178 70.7654L348.58 60.3899L250.212 60.5894L151.844 60.8887L151.146 70.3663C150.547 79.2454 148.452 89.8204 146.756 92.6139C144.96 95.4073 137.578 102.69 133.886 105.284C119.121 115.36 98.7693 112.667 85.7001 98.899C77.8187 90.7183 76.2225 86.2289 75.7236 72.0623L75.3246 60.3899L66.645 60.4896C61.9561 60.5894 57.1674 60.7889 56.07 61.0882ZM421.209 171.328C430.387 173.623 435.475 176.715 443.755 184.996C449.242 190.383 452.235 194.474 454.33 199.063C460.316 211.932 460.117 207.742 460.117 315.289V414.055L457.722 421.338C454.63 430.816 449.542 438.598 441.76 445.781C434.876 452.066 429.289 455.358 420.211 458.151C414.524 459.847 406.643 459.947 250.611 459.947C94.6789 459.947 86.6977 459.847 81.1109 458.151C72.8305 455.558 64.7495 451.268 60.3599 447.078C48.9867 436.203 43.2004 425.129 41.5044 411.162C40.3072 400.687 40.4069 226.698 41.6041 217.32C43.3999 203.253 48.2884 193.675 58.5641 183.499C67.6427 174.521 73.9279 171.927 91.9853 169.732C93.6813 169.532 167.008 169.532 255.1 169.632C394.771 169.732 416.021 170.031 421.209 171.328Z" fill="#ECECEC"></path> <path d="M95.2773 210.037C90.8876 211.334 85.3008 216.222 83.4053 220.512C81.8091 224.004 81.5098 227.496 81.5098 251.04V277.677L84.3032 282.965C86.498 287.255 87.9945 288.751 92.4839 291.046L97.9709 293.839H124.009H150.148L155.435 291.046C159.725 288.851 161.321 287.255 163.516 282.965L166.31 277.677V251.04C166.31 227.296 166.11 224.104 164.414 220.412C162.319 215.923 157.73 211.932 152.442 210.137C148.552 208.84 99.5672 208.74 95.2773 210.037Z" fill="#ECECEC"></path> <path d="M221.879 210.037C217.29 211.434 212.102 216.023 210.106 220.412C208.41 224.104 208.211 227.296 208.211 251.04V277.677L211.004 282.965C213.199 287.255 214.696 288.751 219.185 291.046L224.672 293.839H250.711H276.849L282.137 291.046C286.426 288.851 288.023 287.255 290.217 282.965L293.011 277.677V251.04C293.011 227.296 292.811 224.104 291.115 220.412C289.02 215.923 284.431 211.932 279.144 210.137C275.153 208.84 226.268 208.74 221.879 210.037Z" fill="#ECECEC"></path> <path d="M348.58 210.037C343.991 211.434 338.803 216.023 336.808 220.412C335.112 224.104 334.912 227.296 334.912 251.04C334.912 277.278 334.912 277.577 337.406 282.466C340.1 287.853 343.392 290.846 348.779 292.642C351.074 293.44 360.851 293.839 377.811 293.839H403.55L408.838 291.046C413.128 288.851 414.724 287.255 416.919 282.965L419.712 277.677V251.04C419.712 227.296 419.513 224.104 417.817 220.412C415.721 215.923 411.132 211.932 405.845 210.137C401.854 208.84 352.97 208.74 348.58 210.037Z" fill="#ECECEC"></path> <path d="M96.4745 336.339C89.4909 338.733 86.498 341.028 84.1036 345.916C81.5098 351.104 81.5098 351.104 81.5098 377.641V404.179L84.1036 409.366C88.6928 418.645 92.0848 419.542 123.91 419.542C155.735 419.542 159.127 418.645 163.716 409.366L166.31 404.179V377.641V351.104L163.716 345.916C161.621 341.726 160.224 340.23 156.533 338.434C152.043 336.339 150.547 336.239 124.907 336.039C110.142 335.94 97.2726 336.039 96.4745 336.339Z" fill="#ECECEC"></path> <path d="M223.176 336.339C216.192 338.733 213.199 341.028 210.805 345.916C208.211 351.104 208.211 351.104 208.211 377.641V404.179L210.805 409.366C215.394 418.645 218.786 419.542 250.611 419.542C282.436 419.542 285.828 418.645 290.417 409.366L293.011 404.179V377.641V351.104L290.417 345.916C288.322 341.726 286.925 340.23 283.234 338.434C278.745 336.339 277.248 336.239 251.609 336.039C236.843 335.94 223.974 336.039 223.176 336.339Z" fill="#ECECEC"></path> <path d="M349.877 336.339C342.893 338.733 339.9 341.028 337.506 345.916C334.912 351.104 334.912 351.104 334.912 377.641V404.179L337.506 409.366C342.095 418.645 345.487 419.542 377.312 419.542C409.137 419.542 412.529 418.645 417.118 409.366L419.712 404.179V377.641V351.104L417.118 345.916C415.023 341.726 413.626 340.23 409.935 338.434C405.446 336.339 403.949 336.239 378.31 336.039C363.545 335.94 350.675 336.039 349.877 336.339Z" fill="#ECECEC"></path> </svg> 