<svg width="170" height="30" viewBox="0 0 170 30" fill="none" xmlns="http://www.w3.org/2000/svg">
<path d="M54.4742 10.9623L50.2579 25.129C47.7282 25.129 46.2103 25.129 46.0417 24.9603L45.873 24.4544C46.0417 22.9365 46.7163 20.5754 47.7282 17.7083L49.9206 10.7937H45.7044C44.5238 12.8175 42.5 15.5159 39.6329 18.8889C37.2718 21.756 35.4167 23.6111 34.0675 24.4544C33.5615 24.7917 33.0556 24.9603 32.7183 24.9603L32.381 24.7917C32.5496 23.6111 33.0556 21.25 34.2361 17.877L36.5972 10.7937H32.0436L28.3333 23.4425C28.1647 23.9484 27.996 24.4544 27.996 24.9603H23.9484L28.1647 10.7937H23.6111L19.3948 24.9603H13.8294L18.0456 10.7937H13.4921L9.27579 25.129C9.10714 25.129 8.76984 25.129 8.26389 25.129C7.75794 25.129 7.58929 25.129 7.25198 25.129C5.22817 25.129 4.21627 24.623 4.21627 23.6111C4.21627 23.1052 7.58928 13.4921 8.60119 10.625H4.21627L0.843254 21.0814C0.168651 22.5992 0 23.7798 0 24.623C0 26.3095 0.674603 27.6587 2.02381 28.502C3.20437 29.1766 4.55357 29.5139 6.40873 29.5139H31.0317C31.2004 29.5139 31.369 29.5139 31.5377 29.5139C34.4048 29.5139 37.9464 27.1528 42.3313 22.2619C41.8254 24.1171 41.4881 25.129 41.4881 25.6349C41.4881 28.3333 43.3433 29.6825 47.2222 29.6825H53.631L59.1964 11.131H54.4742V10.9623ZM168.988 11.6369C168.482 11.131 167.47 10.9623 166.121 10.9623H151.448L149.256 15.1786H165.278C165.278 17.371 164.603 19.5635 163.254 21.5873C162.073 23.4425 160.893 24.4544 159.544 24.9603H156.845C155.833 24.4544 155.496 23.6111 155.496 21.9246C155.496 20.5754 155.833 18.8889 156.677 17.0337H152.123C151.448 18.8889 151.111 20.744 151.111 22.2619C151.111 23.2738 151.28 24.1171 151.448 24.7917H147.907C145.883 24.7917 144.871 24.1171 144.871 22.5992C144.871 21.5873 145.208 19.9008 146.052 17.877C146.895 15.8532 147.232 14.1667 147.232 13.1548C147.232 11.4683 146.22 10.625 144.365 10.625H120.417L119.067 15.0099H122.609L119.573 24.9603H112.49C113.165 24.1171 114.008 22.2619 114.851 19.2262C115.694 16.3591 116.2 14.504 116.2 13.4921C116.2 11.4683 114.851 10.4563 112.321 10.4563C108.611 10.4563 105.238 12.4802 102.034 16.3591L103.046 12.8175C109.286 10.2877 113.165 5.90278 114.683 0H105.407C104.226 0 103.214 0.168651 102.54 0.674603C101.865 1.18056 101.359 2.02381 101.022 3.20437L99.6726 7.92659L99.1667 9.78175C98.1548 10.119 97.1429 10.2877 96.131 10.4563L95.9623 14.6726C96.4683 14.504 97.1429 14.504 97.8175 14.3353L94.6131 25.129H91.5774C90.5655 25.129 89.7222 24.9603 89.3849 24.9603L89.0476 24.4544C90.3968 19.5635 91.746 15.0099 93.0952 10.9623H78.5913C77.2421 10.9623 76.2302 11.131 75.5556 11.6369C74.881 12.1429 74.375 12.9861 73.869 14.3353C73.0258 16.8651 72.3512 18.7202 72.0139 20.0694C71.3393 22.0933 71.002 23.7798 70.8333 25.129H67.4603C66.7857 25.129 66.4484 24.7917 66.4484 24.2857V24.1171C67.4603 21.5873 67.7976 19.7321 67.7976 19.0575C67.7976 18.0456 67.2917 17.371 66.4484 17.0337C65.9425 16.8651 65.0992 16.6964 63.9187 16.6964L69.9901 10.9623H64.256L60.7143 14.1667C58.6905 16.0218 57.6786 17.5397 57.6786 18.7202C57.6786 19.9008 58.6905 20.5754 60.8829 20.5754C61.0516 20.5754 61.3889 20.5754 61.8948 20.5754C62.4008 20.5754 62.7381 20.5754 62.9067 20.5754C62.5694 21.756 62.2321 22.5992 62.0635 23.1052C61.7262 24.1171 61.5575 24.9603 61.5575 25.8036C61.5575 27.1528 62.2321 28.1647 63.4127 28.8393C64.4246 29.3452 65.6052 29.6825 66.9544 29.6825H73.3631C73.5317 29.6825 73.7004 29.6825 73.869 29.6825C75.8929 29.6825 77.9167 28.8393 80.1091 27.1528C81.2897 26.3095 82.8075 24.623 85 22.4306C84.494 24.1171 84.1567 25.129 84.1567 25.8036C84.1567 28.502 86.0119 29.8512 89.8909 29.8512H122.44L126.657 15.6845H132.054L127.837 29.8512H132.391L136.607 15.6845H142.51C141.835 17.5397 141.498 18.8889 141.161 19.7321C140.655 21.25 140.317 22.7679 140.317 23.9484C140.317 25.9722 141.161 27.4901 142.679 28.502C144.028 29.3452 145.714 29.8512 147.907 29.8512H155.665H155.833C156.171 29.8512 156.508 29.8512 156.845 29.8512C161.399 29.6825 163.085 28.1647 165.615 25.6349C166.458 24.7917 167.133 23.9484 167.639 23.1052C167.976 22.4306 168.313 21.5873 168.651 20.744C169.494 18.5516 170 16.6964 170 15.0099C170 13.1548 169.663 12.1429 168.988 11.6369ZM104.732 5.56548C105.069 4.38492 105.744 3.87897 106.587 3.87897H108.442C107.599 5.56548 106.081 7.08333 103.889 8.26389L104.732 5.56548ZM75.7242 25.129L75.3869 24.7917C75.7242 23.4425 76.0615 21.756 76.7361 19.9008C77.4107 17.7083 77.9167 16.1905 78.254 15.1786H86.5179C81.121 21.4187 77.4107 24.7917 75.7242 25.129ZM111.31 15.5159L109.286 22.4306C108.78 24.1171 107.431 25.129 105.407 25.129H99.504C100.516 23.6111 102.202 21.5873 104.732 19.0575C107.599 16.1905 109.623 14.6726 110.635 14.6726C110.804 14.6726 110.972 14.6726 111.141 14.8413C111.31 15.1786 111.31 15.3472 111.31 15.5159Z" fill="#1C1C1C"/>
</svg>
